<?xml version="1.0" encoding="UTF-8"?>
<svg id="_レイヤー_1" data-name="レイヤー 1" xmlns="http://www.w3.org/2000/svg" viewBox="0 0 51.67 76.19">
  <defs>
    <style>
      .cls-1 {
        fill: #1b2750;
      }

      .cls-2 {
        fill: #149343;
      }
    </style>
  </defs>
  <path class="cls-2" d="M38.51,9.26c-.03.19.24.1.35.08.89-.17,3.15-.63,3.89-.91.37-.14,1.28-1.03,1.72-1.34,1.45-1,4.07-2.38,5.86-2.31.42.02,1.3.2,1.34.73-.12.51-.58.86-.97,1.17-1.86,1.47-4.29,1.89-6.59,2.1-1.56.14-2.41.4-3.95.87-2.76.85-5.45,1.92-8.09,3.08-.03.2.22.08.33.06,1.66-.31,6.33-1.48,7.7-.74.64.35-.34,1.12-.43,1.63-.26.06-.52.12-.79.14-.7.05-1.78-.06-2.51-.11-1.63-.12-3.27-.37-4.88-.63-3.13,1.51-6.12,3.3-8.9,5.37.32.03.66-.14.96-.24,3.04-1.06,8.09-3.27,11.2-3.3,1.46-.02,3.04.89,1.18,1.95-1.96,1.12-8.21,1.56-10.66,1.76-.89.07-2.18-.05-3.03.13-.49.11-1.47,1.13-1.93,1.45l8.01-1.25c1.9-.22,7.75-.86,9.04.54.46.49.29,1.05-.24,1.4-1.72,1.15-8.1.53-10.33.34-2.25-.19-4.5-.54-6.75-.76l-3.33,2.89c-.04.24.1.16.26.15,3.69-.24,8.71-2.03,12.41-1.27.76.16,2.38.73,1.4,1.66-1.13,1.07-3.71.4-4.94.73-.19.05-.5.35-.73.47-.9.45-1.84.83-2.73,1.31,1.09.49,4.92,1.84,4.45,3.46-.33,1.11-2.4-.12-2.86-.13-.3,0-1.73.51-2.22.61-3.72.76-7.61,1.12-11.41,1.23-.34.06-.45.69-.71.93.08.11.36.06.49.05,3.8-.29,9.36-1.47,13.03-.6,1.97.47,2.67,1.95.24,2.43-1.83.36-4.8-.08-6.71-.31-2.41-.3-4.79-.79-7.19-1.17-1.36,2.17-2.43,4.56-3.26,6.99-.36,1.05-.6,2.14-.95,3.19-.04.12-.06.4-.22.38l-.87-1.7c3.22-11.66,11.67-21.17,22.02-27.12.76-2.36,1.78-10.23,3.8-11.56.69-.46,1.27,0,1.29.77.07,2.47-3.21,8.01-4.56,10.24-.05.08-.22.19-.05.28l3.86-2.03c1.24-3.15,2.14-6.89,4-9.73.38-.58,1.29-1.91,2.09-1.56,1.18.52-.3,3.16-.72,3.92-1.38,2.52-3.35,4.85-5.03,7.17l.16.05s1.67-.72,1.68-.72c0,0,1-.43,1.01-.43.91-2.55,1.77-4.64,2.51-6.18.51-1.06,2.06-4.24,3.31-4.33,1.37-.1.71,1.62.37,2.34-1.33,2.82-4,5.48-5.87,7.97l4.14-1.31c.92-1.44,1.78-2.93,2.75-4.33.85-1.24,3.13-4.54,4.42-5.06.85-.34,1.51-.05,1.26.93-.51,1.99-5.56,6.22-7.28,7.65-.24.19-.53.45-.81.55ZM20.64,24.3l-4.09-.53c-.33.08-.75.26-.27.47.86.38,1.82.53,2.68.93l1.68-.87ZM12.25,29.64l5.56-3.76-2.1-1.35c-1.52,1.58-2.99,3.34-4.24,5.14-.12.17-1.04,1.53-.96,1.6l10.24-3.43c-.29-.22-.62-.55-1.01-.47-2.45.9-4.93,1.74-7.49,2.27Z"/>
  <g>
    <path class="cls-2" d="M50.36,36.06c-3.82,11.46-13.55,20.47-24.37,25.36-3.35-1.41-6.52-3.29-9.44-5.44-3.79-2.8-7.66-6.49-10.3-10.41-.22-.33-.76-.99-.74-1.34.06-.77.82-2.86,1.1-3.7.52-1.52,1.18-2.99,1.79-4.47h41.95ZM28.46,41.72c.34-.29-1.67-1.04-1.78-1.1-.38-.23-.53-.66-.78-.86-.36-.29-.35.22-.54.45s-.68.33-.78.54c-.06.12.07.3.05.31-.04.06-1.09.42-1.19.72.21.31.53.09.82.06.12-.01.41-.08.38.11l-.54.06c-.33.56-1.62.67-1.47,1.36.58.11,1.1-.16,1.64-.22.11-.01.41-.08.38.11-.2-.07-.31.05-.43.08-.89.29-1.41.57-2.25.99-.09.05-2.17.89-1.4,1,1.18.03,2.5-.57,3.68-.51.11,0,.59.13.61.29-.69-.26-.96,0-1.54.15-.53.14-1.41.18-1.7.62-.33.06-2.17,1.05-2.21,1.25.25.64,1.2.04,1.7-.04.46-.08,1.15.03,1.5-.05.24-.06.45-.27.68-.28.16-.01.73.13.81.32-.43.04-1.26-.18-1.21.42-.39.12-1.67.34-1.95.51-.48.29-.07.15-.8.4-.42.14-1.77.9-2.08,1.19-.23.22-.28.5.08.53.1,0,1.07-.1,1.19-.13.2-.05.34-.26.48-.28.17-.04.35.1.58.05.21-.05.2-.28.28-.29.18-.02.47.13.75.12.42,0,1.11-.29,1.64-.34.24-.02.52-.01.76,0,.13,0,.4-.08.38.11-.4-.13-.64.15-.93.21-.2.05-.44-.04-.64.02s-.14.53-.86.22c-.31.07-.27.5-.29.53-.04.04-.39-.16-.58-.1-.17.06-.18.35-.36.41-.22.07-.51-.04-.73.03-.17.06-.18.34-.36.4-.19.06-.47,0-.7.06s-.23.33-.38.37c-.21.06-.53-.05-.7.07-.11.08-.09.36-.21.44-.09.07-1.22.15-.93.6.45.71,3.25-.28,3.96-.3.3,0,.65.11.79.41-.6-.14-.47.33-.56.42-.06.05-.38.01-.53.07-.33.11-1.56.52-1.74.66-.13.11-.13.11,0,.22.84.71,3.32-.56,4.34-.31.92.23,1.01.9.63,1.68-.19.4-.63.55-.71.97.19.18,1.53-.72,1.71-.74.23-.02.5.29.64.28.12-.01.21-.33.53-.3.57.05,1.51,1.56,1.97,1.64.36.06-.03-.5-.08-.68-.03-.11-.19-.25.08-.19s1.36.98,1.47.87c-.1-.47-.62-.79-.85-1.16-.39-.62-.83-2.32,0-2.68.15-.06,1.05-.18,1.21-.16.26.03.7.39,1.12.4.29,0,.46-.21.74-.22.67-.01,1.98.31,2.83.34.23,0,1.14.01.64-.32-.91-.6-2.09-.54-2.91-.88-.14-.06.01-.27-.2-.37-.24-.11-.77-.03-.84-.09-.1-.1.05-.49-.62-.52-.17,0-.34.11-.42.11-.1,0-.08-.26-.24-.32-.27-.09-.68.13-.91-.18-.04-.3.18-.12.33-.11,1.34.13,2.68.72,4.03.99.3.06,2.18.43,2.18,0-.15-.3-.55-.29-.73-.41-.09-.07-.12-.27-.32-.39-.22-.13-.55-.11-.73-.22-.12-.08-.15-.32-.29-.39-.24-.11-.56.02-.77-.11-.12-.07-.16-.36-.32-.44-.25-.12-.6-.03-.87-.05l-.07-.31h-.74s-.24-.44-.24-.44l-.91-.03-.07-.32h-1.14c-.08-.27.24-.26.41-.29,1.42-.2,2.98.56,4.44.62.28.01.63.08.82-.16.04-.18-1.13-.77-1.33-.84-.26-.09-.46-.08-.72-.1-.1-.64-.3-.32-.7-.44-.61-.18-1.42-.61-2.05-.78-.36-.1-.72-.07-1.08-.07,0-.17.49-.22.6-.22.47,0,.91.29,1.21.33.22.03.42-.11.64-.1.66.03,1.49.51,2.24.32.1-.42-.47-.51-.76-.71-.6-.4-1.57-1.02-2.23-1.27-.24-.09-.48.03-.72-.02-.41-.08-.74-.46-1.2-.39.08-.2.64-.12.82-.11.7.05,1.63.33,2.29.33.97,0-.29-.71-.5-.92l-3.04-1.04c-.03-.19.25-.11.37-.09.39.04.83.28,1.11.31.14.01.31-.1.43-.08.22.02,1.62.4,1.15-.19-.19-.23-1.51-.84-1.86-.97-.46-.18-.95-.22-1.41-.39-.03-.18.27-.12.38-.11.41.03.82.19,1.25.11Z"/>
    <path class="cls-1" d="M11.29,76.05l-.12-.23,4.2-10.71,2.61-.05,4.27,10.99h-2.51c-.23-.49-.38-1.62-.66-2.01-.12-.17-.18-.16-.37-.18-1.35-.16-3.04.08-4.4.13l-.83,2.05h-2.18ZM18.32,72.02l-1.74-4.36-1.53,4.36h3.27Z"/>
    <path class="cls-1" d="M33.36,65.04v6.81c0,.09.21.79.27.93.67,1.58,3.22,1.73,4.11.29.1-.16.42-.87.42-1v-7.03h2.29v7.46c0,.25-.45,1.29-.61,1.57-1.96,3.55-8.76,2.38-8.76-1.79v-7.25h2.29Z"/>
    <path class="cls-1" d="M43.8,24.32c1.58-.21,3.59.09,4.48,1.55l-1.35,1.02c-.62-.77-2.14-1.22-3.06-.86-.68.27-.84,1.15-.26,1.59s2.59.64,3.49,1.09c1.93.98,2.03,3.55.14,4.61s-5.16.6-6.35-1.34l1.27-1.02c.38.17.57.54.94.77.82.52,2.89.89,3.4-.13s-.43-1.31-1.17-1.55c-1.43-.47-3.41-.44-3.9-2.2s.62-3.28,2.38-3.52Z"/>
    <path class="cls-1" d="M39.56,26.57l-1.47.74c-2.29-2.86-6.34-.39-5.05,3.01.83,2.19,3.79,2.45,5.07.52l1.52.75c-1.07,2.4-4.23,2.84-6.38,1.69-3.48-1.84-3.1-7.21.52-8.64,1.98-.78,5.13-.4,5.8,1.93Z"/>
    <rect class="cls-1" x="24.97" y="65.04" width="2.29" height="11.01"/>
    <g>
      <path class="cls-1" d="M47.18,21.54l-1.4.62-1.25-.6-.15-1.13,1.62-1.22c.95.71,1.63.97,1.18,2.32Z"/>
      <path class="cls-1" d="M42.3,14.26c-.04-.16.04-.18.11-.27.14-.2,1.67-1.52,1.82-1.56.32-.09,1.58.78,1.88,1.02l-1.41,1.31-.69-.27-.68.51-1.03-.74Z"/>
      <path class="cls-1" d="M44.01,14.93c.39-.1,1.51,1.01,1.88,1.24l-1.81,1.57-1.78-1.13c0-.15,1.47-1.61,1.71-1.67Z"/>
      <path class="cls-1" d="M43.06,15.14l-1.08,1.36c-.93-.22-1.69-.51-1.83-1.56-.04-.29-.07-1.61.41-1.39.85.38,1.67,1.16,2.51,1.58Z"/>
      <path class="cls-1" d="M46.11,9.25c.4,1.29-.09,1.45-1.05,2.06l-1.63-1.28c-.29-.04-1.23,1.05-1.67.96-.24-.25.88-1.37,1.05-1.62,1.1.23,2.22.03,3.31-.12Z"/>
      <path class="cls-1" d="M48.29,12.41l-1.67.96-2.03-1.34,1.89-1.24c.24.09,1.89,1.5,1.82,1.62Z"/>
      <path class="cls-1" d="M48.8,14.92c.21-.04,1.4,1.3,1.34,1.56-.36.19-1.6,1.32-1.88,1.25-.13-.03-1.3-1.22-1.27-1.34l1.81-1.47Z"/>
      <path class="cls-1" d="M46.18,16.46l1.78,1.46c-.33.14-1.54,1.01-1.77,1.01-.44,0-1.45-.65-1.72-1.01,0-.26,1.4-1.28,1.71-1.46Z"/>
      <path class="cls-1" d="M46.44,9.14c.3.07.61-.18.85-.2.41-.04,1.71,1.19,1.87,1.66-.01.07-.89.85-.97.89-.36.17-1.19-.83-1.58-1.04l-.16-1.31Z"/>
      <path class="cls-1" d="M42.39,19.27c-1.25-.19-1.68-1.73-1.73-2.82.1-.11,2.65,1.05,2.72,1.37l-.99,1.45Z"/>
      <path class="cls-1" d="M48.07,15.13l-1.47,1.1-1.58-1.26,1.47-1.14c.3.04,1.74,1.07,1.58,1.3Z"/>
      <path class="cls-1" d="M41.37,11.1l1.68,1.7-1.05,1.12-1.44-.82c-.07-.25.6-1.95.81-2Z"/>
      <path class="cls-1" d="M46.98,13.71l.07-.22,1.61-.87c.25.02,1.26,1.16,1.26,1.37-.3.77-.97.55-1.57.8l-1.38-1.08Z"/>
      <path class="cls-1" d="M49.44,10.89c.25-.06,1.09,1.56,1.17,1.87.1.39.2.82-.21,1.06-.74-.6-1.23-1.43-2.11-1.91l1.15-1.02Z"/>
      <path class="cls-1" d="M43.35,10.47c.22-.02,1.39.92,1.35,1.12l-1.25,1.01-1.24-1.25,1.15-.88Z"/>
      <path class="cls-1" d="M42.73,19.49c-.15-.17.71-1.26.94-1.4l1.67,1.02-1.14.92-1.47-.54Z"/>
      <path class="cls-1" d="M49.27,19.17l-.66-1.14,1.96-1.37c.27.38-.54,2.58-1.3,2.51Z"/>
      <path class="cls-1" d="M48.38,18.31l.67,1.07-1.47.75-.92-.91c.27-.25,1.41-1.09,1.72-.91Z"/>
      <path class="cls-1" d="M49.49,14.81l1.52-.98c.21.79.42,1.98-.48,2.4l-1.04-1.41Z"/>
      <path class="cls-1" d="M41.97,19.6l1.96.7.21.88-.22.12c-.94-.13-1.58-.87-1.95-1.7Z"/>
      <path class="cls-1" d="M49.49,19.6c-.27.81-1.05,1.7-1.96,1.74l.13-.79c.08-.27,1.72-1.05,1.83-.95Z"/>
    </g>
    <g>
      <path class="cls-1" d="M25.73,2.82v11.39C15.45,20.09,6.86,29.51,3.56,41.07c-2.07-3.74-3.01-8.02-3.43-12.26C-.12,20.15.08,11.48.02,2.82h25.72ZM7.09,8.06h-1.72s-2.52,6.74-2.52,6.74l1.42-.05.61-1.24,2.88.05.43,1.24h1.52s-2.63-6.75-2.63-6.75ZM12.77,8.05h-1.42v6.76h1.42v-6.76ZM16.47,8.05h-1.53c.03.89-.04,1.79,0,2.67.02.57.06,1.51.14,2.04.39,2.51,4.3,2.91,5.47.73.16-.3.39-1.03.39-1.36v-4.09h-1.53v4.52c0,.74-1.24,1.14-1.88,1.01-.35-.07-1.06-.68-1.06-1.01v-4.52Z"/>
      <path class="cls-1" d="M5.25,12.41c-.09-.09.7-2.13.82-2.4.06-.13,0-.26.21-.22l.93,2.62h-1.96Z"/>
    </g>
    <path class="cls-1" d="M4.19,41.76c.28.56.57,1.13.85,1.69.02.02.03.03.04.04,0,0,.01,0,.01,0s0,0,.02,0c.02,0,.04-.05.04-.05.01-.03.03-.07.07-.11-.05-.23-.07-.37-.08-.46,0-.02,0-.04,0-.04-.01,0-.05.6.02.62.11.02.52-1.65.64-2.08.58-2.24,1.43-3.96,2.46-6.06,1.92-3.89,3.97-6.64,4.91-7.79,1.03-1.26,3.17-3.52,3.95-4.34.23-.24,5.44-4.51,8.36-6.53.49-.34,2.46-1.58,5.14-3,1.25-.66,2.15-1.03,3.78-1.7,1.07-.44,1.78-.71,2.42-.94.3-.11.14-.05.9-.31,1.61-.57,2.29-.83,3.03-1.06.17-.06.21-.07.3-.1.36-.14.74-.38.98-.41.06,0,.09-.01.09-.01,0,.01-.03.03-.09.01-.1-.03-.25-.02-.26-.06-.03-.1.69-.34.68-.41,0-.03-.24-.04-2.88.56-.59.14-.87.2-1.22.3-.67.18-1.19.35-1.65.5-1.81.61-3.66,1.32-3.65,1.34,0,.02.58-.17.58-.18,0,0-.04.01-.08.02-1.37.39-2.73,1.05-2.73,1.05-1.28.62-2.48,1.21-4.18,2.17,0,0-1.85,1.06-3.37,2.07-.12.08-.48.32-.92.63-.35.25-.53.37-.72.51-.22.16-.46.35-.65.48-.02.02-.11.08-.22.16-.05.03-.08.06-.11.08l-.1.07s-.04.03-.06.05c-.02.02-.04.03-.07.05-.08.07-.2.16-.35.27-.22.17-.58.46-1.2.97-.41.34-.62.51-.86.71-.18.15-.78.67-1.65,1.51-.46.44-1.28,1.23-2.3,2.34-.89.97-1.56,1.79-1.94,2.25-.36.44-.99,1.24-1.73,2.28-.63.89-1.08,1.58-1.23,1.81-.58.9-.99,1.61-1.15,1.9-.08.14-.27.48-.51.93-.38.71-.65,1.28-.78,1.53-.24.51-.62,1.32-1.03,2.33-.04.11-.17.41-.32.82-.27.71-.48,1.31-.64,1.77-.19.6-.37,1.21-.56,1.81Z"/>
    <rect class="cls-1" x="38.06" y="9.06" width="4.52" height=".68" rx=".12" ry=".12" transform="translate(81.69 8.04) rotate(164.99)"/>
  </g>
  <rect class="cls-1" x="4.47" y="39.96" width="1.07" height="1.96" transform="translate(11.9 .28) rotate(16.6)"/>
</svg>