<?xml version="1.0" encoding="UTF-8"?>
<svg id="_レイヤー_1" data-name="レイヤー 1" xmlns="http://www.w3.org/2000/svg" viewBox="0 0 115.24 147.38">
  <defs>
    <style>
      .cls-1 {
        fill: #1b2750;
      }

      .cls-2 {
        fill: #fff;
      }

      .cls-3 {
        fill: #149343;
      }
    </style>
  </defs>
  <rect class="cls-2" width="115.24" height="115.24"/>
  <path class="cls-1" d="M61.73,147.19l-.16-.31,5.72-14.6,3.56-.07,5.82,14.97h-3.42c-.31-.67-.52-2.21-.9-2.73-.17-.23-.24-.21-.5-.24-1.84-.21-4.14.1-6,.18l-1.14,2.8h-2.97ZM71.31,141.7l-2.37-5.94-2.08,5.94h4.46Z"/>
  <path class="cls-1" d="M91.8,132.19v9.28c0,.13.29,1.07.37,1.26.91,2.15,4.38,2.35,5.6.4.14-.22.57-1.18.57-1.36v-9.58h3.12v10.17c0,.34-.62,1.76-.83,2.14-2.68,4.84-11.94,3.25-11.94-2.44v-9.88h3.12Z"/>
  <rect class="cls-1" x="80.37" y="132.19" width="3.12" height="15"/>
  <path class="cls-3" d="M78.88,21.33c-.05.33.41.18.6.14,1.51-.3,5.36-1.07,6.62-1.54.64-.24,2.18-1.76,2.92-2.27,2.47-1.71,6.93-4.06,9.97-3.93.71.03,2.21.35,2.29,1.24-.21.88-.98,1.47-1.65,1.99-3.16,2.5-7.29,3.22-11.21,3.58-2.66.24-4.11.68-6.72,1.49-4.7,1.45-9.27,3.27-13.77,5.24-.04.35.37.14.56.1,2.82-.52,10.77-2.52,13.11-1.26,1.09.59-.58,1.91-.73,2.78-.44.09-.89.2-1.34.23-1.18.08-3.03-.11-4.27-.19-2.78-.2-5.57-.62-8.31-1.07-5.32,2.56-10.42,5.61-15.15,9.14.54.06,1.13-.24,1.63-.41,5.17-1.8,13.76-5.56,19.06-5.62,2.48-.03,5.18,1.51,2,3.32-3.34,1.9-13.97,2.66-18.15,2.99-1.52.12-3.7-.09-5.15.23-.84.18-2.49,1.92-3.28,2.47l13.64-2.13c3.24-.37,13.19-1.47,15.39.92.78.84.5,1.78-.41,2.38-2.93,1.95-13.78.91-17.59.59-3.83-.33-7.66-.91-11.49-1.3l-5.67,4.92c-.07.41.16.27.44.26,6.28-.41,14.83-3.45,21.12-2.15,1.3.27,4.06,1.24,2.38,2.83-1.92,1.81-6.32.69-8.4,1.24-.32.08-.86.6-1.25.79-1.53.77-3.13,1.41-4.64,2.22,1.86.83,8.38,3.14,7.57,5.89-.56,1.89-4.08-.2-4.87-.22-.5-.01-2.94.87-3.77,1.04-6.33,1.3-12.95,1.9-19.42,2.1-.58.11-.76,1.17-1.2,1.58.14.18.61.11.83.09,6.47-.49,15.93-2.51,22.18-1.03,3.35.79,4.54,3.32.4,4.13-3.12.61-8.16-.13-11.42-.53-4.1-.5-8.16-1.34-12.24-1.99-2.31,3.7-4.13,7.76-5.55,11.89-.62,1.79-1.02,3.65-1.62,5.43-.07.21-.11.67-.37.64l-1.48-2.89c5.48-19.84,19.87-36.03,37.47-46.16,1.3-4.01,3.02-17.42,6.47-19.68,1.18-.78,2.16,0,2.2,1.31.11,4.21-5.46,13.63-7.76,17.43-.09.14-.37.33-.09.47l6.57-3.45c2.11-5.36,3.64-11.72,6.8-16.57.64-.98,2.19-3.25,3.55-2.66,2.01.88-.51,5.38-1.22,6.66-2.35,4.28-5.71,8.25-8.56,12.21l.27.09s2.85-1.23,2.85-1.23c0,0,1.71-.74,1.71-.74,1.55-4.33,3.02-7.9,4.28-10.52.87-1.81,3.51-7.21,5.63-7.36,2.33-.17,1.2,2.75.62,3.98-2.27,4.8-6.82,9.32-9.99,13.56l7.04-2.23c1.57-2.45,3.03-4.98,4.68-7.38,1.45-2.11,5.32-7.72,7.53-8.61,1.44-.58,2.57-.08,2.14,1.59-.86,3.38-9.46,10.59-12.4,13.01-.4.33-.9.76-1.39.93ZM48.46,46.93l-6.96-.9c-.57.14-1.27.44-.45.8,1.46.64,3.1.9,4.56,1.58l2.86-1.48ZM34.18,56.01l9.46-6.4-3.58-2.3c-2.58,2.7-5.08,5.68-7.22,8.75-.2.29-1.77,2.6-1.63,2.73l17.43-5.84c-.5-.37-1.05-.93-1.71-.8-4.16,1.53-8.4,2.96-12.75,3.86Z"/>
  <path class="cls-3" d="M99.04,66.93c-6.5,19.51-23.07,34.84-41.49,43.17-5.71-2.4-11.1-5.59-16.07-9.26-6.45-4.76-13.04-11.04-17.53-17.71-.38-.57-1.3-1.69-1.26-2.29.1-1.3,1.39-4.87,1.88-6.29.89-2.58,2.01-5.09,3.05-7.61h71.41ZM61.76,76.58c.58-.5-2.85-1.77-3.03-1.88-.65-.4-.9-1.12-1.32-1.46-.61-.5-.59.37-.92.76s-1.16.57-1.32.92c-.1.21.11.5.09.54-.07.1-1.85.71-2.02,1.22.36.52.9.15,1.39.09.2-.02.69-.13.65.18l-.92.1c-.57.95-2.75,1.15-2.5,2.32.99.19,1.86-.27,2.78-.37.2-.02.69-.13.65.18-.34-.13-.53.08-.73.14-1.52.49-2.4.96-3.83,1.69-.16.08-3.7,1.52-2.38,1.69,2.01.04,4.26-.98,6.27-.87.18,0,1.01.22,1.04.5-1.18-.45-1.64,0-2.62.26-.9.24-2.4.31-2.89,1.05-.56.09-3.7,1.78-3.77,2.12.43,1.09,2.05.07,2.89-.08.78-.14,1.96.05,2.55-.09.41-.1.76-.46,1.15-.48.28-.02,1.24.22,1.38.55-.74.06-2.15-.3-2.05.72-.66.2-2.83.57-3.32.86-.81.49-.12.26-1.36.68-.71.24-3.01,1.53-3.54,2.03-.39.37-.48.86.14.89.16,0,1.83-.17,2.02-.21.35-.08.58-.43.82-.48.29-.06.59.17.99.08.36-.08.35-.48.48-.49.3-.03.81.22,1.27.21.72-.02,1.89-.5,2.78-.57.42-.03.88-.02,1.3,0,.23.01.69-.14.65.18-.68-.21-1.09.25-1.58.36-.33.08-.76-.07-1.08.03s-.25.9-1.47.37c-.53.12-.46.86-.5.9-.08.08-.66-.28-.99-.17-.29.09-.31.6-.61.7-.37.12-.88-.07-1.24.06-.3.1-.31.58-.61.68-.32.11-.79,0-1.2.11s-.39.55-.65.63c-.36.11-.91-.08-1.19.11-.19.13-.15.61-.36.76-.16.11-2.08.25-1.59,1.02.77,1.22,5.53-.48,6.73-.52.52-.02,1.11.18,1.34.69-1.01-.24-.79.57-.96.71-.1.09-.64.02-.91.11-.56.19-2.66.88-2.96,1.13-.23.19-.22.18,0,.37,1.44,1.21,5.65-.96,7.38-.52,1.57.4,1.71,1.53,1.07,2.85-.33.68-1.07.94-1.22,1.66.32.3,2.61-1.23,2.9-1.26.39-.04.86.49,1.09.47.2-.02.35-.56.91-.51.97.08,2.56,2.65,3.35,2.79.61.11-.05-.85-.14-1.17-.05-.19-.33-.43.14-.32s2.31,1.67,2.5,1.49c-.18-.8-1.06-1.35-1.45-1.98-.67-1.06-1.41-3.96.02-4.56.26-.11,1.79-.3,2.06-.27.45.05,1.19.67,1.9.68.49,0,.78-.36,1.27-.37,1.14-.02,3.37.53,4.82.57.39.01,1.94.02,1.1-.54-1.56-1.03-3.57-.93-4.95-1.5-.24-.1.02-.46-.34-.62-.41-.19-1.32-.05-1.42-.15-.18-.16.09-.83-1.06-.89-.29-.01-.57.19-.71.18-.16-.01-.13-.45-.41-.54-.46-.16-1.16.22-1.55-.31-.07-.51.31-.21.56-.18,2.29.22,4.56,1.23,6.85,1.68.51.1,3.71.72,3.72,0-.25-.52-.94-.49-1.24-.71-.16-.12-.2-.47-.54-.67-.38-.22-.93-.19-1.24-.38-.21-.13-.25-.55-.49-.66-.41-.19-.95.03-1.31-.18-.2-.12-.28-.61-.55-.75-.42-.21-1.03-.05-1.49-.09l-.12-.53h-1.26s-.41-.75-.41-.75l-1.54-.04-.11-.55h-1.94c-.14-.45.4-.45.7-.49,2.42-.35,5.08.95,7.56,1.06.47.02,1.07.14,1.39-.28.06-.31-1.93-1.32-2.27-1.43-.44-.15-.78-.14-1.23-.17-.17-1.09-.52-.55-1.19-.75-1.03-.31-2.42-1.03-3.49-1.33-.6-.17-1.22-.12-1.84-.12.01-.29.84-.37,1.02-.37.79.02,1.55.49,2.06.56.38.05.71-.19,1.08-.17,1.12.05,2.54.86,3.82.54.16-.72-.79-.88-1.3-1.21-1.02-.68-2.67-1.74-3.79-2.17-.41-.16-.81.05-1.22-.03-.69-.14-1.27-.78-2.04-.67.13-.34,1.09-.2,1.39-.18,1.2.08,2.77.56,3.91.56,1.65.01-.49-1.21-.86-1.57l-5.18-1.78c-.04-.33.42-.18.62-.16.67.07,1.42.48,1.89.53.25.02.52-.16.73-.14.38.04,2.76.68,1.95-.32-.32-.4-2.57-1.43-3.16-1.66-.78-.3-1.62-.38-2.41-.66-.05-.31.45-.2.65-.19.7.04,1.39.32,2.13.19Z"/>
  <path class="cls-1" d="M87.87,46.95c2.69-.36,6.1.16,7.63,2.64l-2.3,1.73c-1.05-1.32-3.64-2.08-5.21-1.47-1.16.45-1.43,1.96-.45,2.7s4.41,1.08,5.94,1.85c3.28,1.66,3.45,6.04.23,7.85-3.22,1.82-8.77,1.02-10.8-2.29l2.16-1.73c.66.28.97.92,1.6,1.31,1.4.88,4.92,1.52,5.79-.22s-.74-2.23-1.99-2.65c-2.44-.81-5.8-.74-6.64-3.74-.83-2.96,1.05-5.58,4.05-5.99Z"/>
  <path class="cls-1" d="M80.67,50.78l-2.49,1.26c-3.89-4.87-10.78-.66-8.6,5.13,1.41,3.73,6.45,4.17,8.62.88l2.58,1.27c-1.81,4.08-7.19,4.83-10.86,2.88-5.92-3.14-5.28-12.27.88-14.7,3.37-1.33,8.73-.69,9.87,3.28Z"/>
  <path class="cls-1" d="M93.63,42.23l-2.39,1.06-2.12-1.02-.25-1.92,2.76-2.07c1.61,1.21,2.77,1.65,2,3.95Z"/>
  <path class="cls-1" d="M85.32,29.83c-.07-.27.07-.31.18-.46.23-.33,2.84-2.59,3.1-2.66.55-.15,2.69,1.33,3.21,1.74l-2.39,2.23-1.18-.45-1.15.87-1.76-1.26Z"/>
  <path class="cls-1" d="M88.23,30.98c.66-.18,2.56,1.72,3.2,2.11l-3.08,2.67-3.03-1.93c0-.26,2.5-2.74,2.91-2.85Z"/>
  <path class="cls-1" d="M86.62,31.33l-1.85,2.32c-1.58-.38-2.87-.86-3.11-2.65-.07-.5-.12-2.73.69-2.37,1.44.65,2.84,1.98,4.27,2.7Z"/>
  <path class="cls-1" d="M91.81,21.31c.68,2.2-.15,2.46-1.8,3.5l-2.78-2.17c-.5-.08-2.09,1.78-2.84,1.64-.41-.43,1.49-2.33,1.79-2.76,1.87.4,3.77.05,5.63-.21Z"/>
  <path class="cls-1" d="M95.52,26.68l-2.84,1.64-3.46-2.29,3.21-2.1c.41.15,3.22,2.56,3.09,2.75Z"/>
  <path class="cls-1" d="M96.38,30.97c.36-.06,2.38,2.22,2.28,2.66-.61.32-2.72,2.25-3.19,2.13-.22-.05-2.2-2.08-2.16-2.28l3.08-2.51Z"/>
  <path class="cls-1" d="M91.94,33.57l3.02,2.48c-.57.25-2.61,1.71-3.02,1.72-.76,0-2.46-1.1-2.92-1.71,0-.45,2.38-2.18,2.92-2.48Z"/>
  <path class="cls-1" d="M92.37,21.12c.52.12,1.03-.3,1.44-.34.69-.07,2.91,2.03,3.18,2.82-.02.12-1.51,1.45-1.66,1.52-.62.29-2.03-1.42-2.69-1.77l-.28-2.23Z"/>
  <path class="cls-1" d="M85.48,38.36c-2.12-.33-2.86-2.95-2.94-4.81.17-.2,4.51,1.78,4.63,2.34l-1.68,2.47Z"/>
  <path class="cls-1" d="M95.15,31.32l-2.5,1.87-2.68-2.14,2.5-1.94c.51.07,2.97,1.82,2.69,2.22Z"/>
  <path class="cls-1" d="M83.75,24.46l2.86,2.9-1.79,1.9-2.45-1.4c-.12-.42,1.02-3.32,1.37-3.4Z"/>
  <path class="cls-1" d="M93.3,28.91l.12-.38,2.75-1.48c.42.04,2.15,1.97,2.15,2.33-.52,1.32-1.64.94-2.67,1.37l-2.34-1.83Z"/>
  <path class="cls-1" d="M97.48,24.1c.43-.1,1.86,2.66,1.99,3.18.17.67.34,1.4-.36,1.81-1.25-1.01-2.1-2.43-3.59-3.25l1.96-1.74Z"/>
  <path class="cls-1" d="M87.11,23.38c.38-.04,2.37,1.57,2.29,1.9l-2.14,1.72-2.11-2.12,1.96-1.51Z"/>
  <path class="cls-1" d="M86.06,38.74c-.26-.3,1.21-2.15,1.6-2.38l2.85,1.74-1.94,1.57-2.51-.93Z"/>
  <path class="cls-1" d="M97.19,38.18l-1.12-1.94,3.34-2.33c.47.64-.91,4.4-2.22,4.27Z"/>
  <path class="cls-1" d="M95.67,36.74l1.15,1.82-2.51,1.27-1.57-1.54c.46-.43,2.4-1.86,2.93-1.54Z"/>
  <path class="cls-1" d="M97.56,30.77l2.59-1.67c.36,1.34.71,3.37-.83,4.08l-1.77-2.41Z"/>
  <path class="cls-1" d="M84.76,38.93l3.34,1.2.35,1.49-.38.2c-1.61-.23-2.7-1.48-3.32-2.9Z"/>
  <path class="cls-1" d="M97.56,38.93c-.46,1.38-1.79,2.89-3.34,2.96l.22-1.35c.13-.45,2.93-1.79,3.12-1.61Z"/>
  <path class="cls-1" d="M57.13,10.36v19.38c-17.5,10.02-32.12,26.05-37.74,45.72-3.53-6.37-5.13-13.64-5.84-20.87-.41-14.73-.08-29.49-.19-44.23h43.77ZM25.39,19.28h-2.92s-4.29,11.48-4.29,11.48l2.42-.08,1.04-2.11,4.91.08.72,2.12h2.59s-4.47-11.48-4.47-11.48ZM35.06,19.27h-2.41v11.5h2.41v-11.5ZM41.36,19.27h-2.6c.05,1.51-.07,3.04,0,4.55.04.97.1,2.57.24,3.47.66,4.26,7.31,4.95,9.31,1.24.28-.52.66-1.76.66-2.31v-6.96h-2.6v7.7c0,1.25-2.11,1.95-3.2,1.72-.59-.12-1.8-1.16-1.8-1.72v-7.7Z"/>
  <path class="cls-1" d="M22.26,26.69c-.16-.15,1.2-3.63,1.4-4.08.1-.23-.01-.45.36-.37l1.58,4.45h-3.34Z"/>
  <path class="cls-1" d="M20.46,76.64c.48.96.96,1.92,1.45,2.88.03.04.05.06.07.06.01,0,.02,0,.02,0s.02,0,.03,0c.04,0,.07-.08.07-.08.02-.05.06-.11.12-.2-.08-.39-.12-.64-.14-.79,0-.03,0-.06-.01-.06-.02,0-.08,1.03.03,1.05.18.04.89-2.81,1.08-3.55.99-3.81,2.43-6.74,4.19-10.31,3.27-6.61,6.76-11.3,8.36-13.26,1.75-2.14,5.4-6,6.73-7.39.39-.41,9.26-7.68,14.22-11.12.83-.58,4.19-2.69,8.75-5.11,2.12-1.13,3.66-1.76,6.43-2.89,1.82-.74,3.03-1.21,4.11-1.6.51-.18.24-.08,1.53-.53,2.75-.97,3.9-1.4,5.16-1.81.3-.1.36-.11.5-.17.62-.25,1.25-.65,1.67-.7.11-.01.16-.02.16-.02,0,.02-.05.05-.16.02-.16-.05-.42-.03-.44-.1-.05-.18,1.18-.59,1.15-.69-.02-.06-.41-.07-4.9.96-1,.23-1.47.34-2.07.5-1.14.31-2.03.6-2.8.86-3.08,1.04-6.23,2.24-6.21,2.28.01.03.99-.3.98-.3,0,0-.07.02-.14.04-2.32.66-4.65,1.79-4.65,1.79-2.18,1.06-4.23,2.06-7.11,3.7,0,0-3.16,1.8-5.73,3.53-.2.13-.81.55-1.56,1.07-.6.42-.9.63-1.23.86-.38.28-.79.59-1.1.82-.04.03-.19.13-.38.28-.08.06-.14.11-.18.14l-.17.13s-.06.06-.1.08c-.04.03-.08.06-.12.08-.14.11-.35.27-.59.46-.37.29-.99.78-2.04,1.65-.7.58-1.05.87-1.46,1.22-.3.26-1.33,1.14-2.81,2.56-.79.75-2.18,2.1-3.92,3.99-1.52,1.66-2.66,3.04-3.3,3.83-.61.75-1.68,2.11-2.94,3.88-1.07,1.51-1.83,2.69-2.09,3.09-.98,1.54-1.68,2.74-1.96,3.24-.14.24-.46.82-.87,1.59-.65,1.21-1.11,2.17-1.32,2.6-.42.86-1.06,2.25-1.76,3.96-.07.18-.28.7-.55,1.39-.46,1.2-.82,2.23-1.08,3.01-.32,1.03-.63,2.06-.95,3.09Z"/>
  <rect class="cls-1" x="78.07" y="20.75" width="9.57" height="1.15" rx=".12" ry=".12" transform="translate(168.37 18.55) rotate(163.71)"/>
  <rect class="cls-1" x="20.93" y="73.57" width="1.83" height="3.34" transform="translate(22.41 -3.11) rotate(16.6)"/>
  <ellipse class="cls-1" cx="94.24" cy="17.15" rx="8.19" ry="2.33" transform="translate(.15 35.1) rotate(-21.12)"/>
</svg>